<mxfile host="65bd71144e">
    <diagram id="V7hC7Ia_DJyM14xFZ34Q" name="Page-1">
        <mxGraphModel dx="2222" dy="1476" grid="1" gridSize="10" guides="1" tooltips="1" connect="1" arrows="1" fold="1" page="1" pageScale="1" pageWidth="850" pageHeight="1100" math="0" shadow="0">
            <root>
                <mxCell id="0"/>
                <mxCell id="1" parent="0"/>
                <mxCell id="2" value="10.0.0.2" style="rounded=0;whiteSpace=wrap;html=1;" parent="1" vertex="1">
                    <mxGeometry x="423" y="340" width="150" height="60" as="geometry"/>
                </mxCell>
                <mxCell id="4" value="Source MAC" style="rounded=0;whiteSpace=wrap;html=1;" parent="1" vertex="1">
                    <mxGeometry x="80" y="340" width="170" height="60" as="geometry"/>
                </mxCell>
                <mxCell id="5" value="Destination MAC" style="rounded=0;whiteSpace=wrap;html=1;" parent="1" vertex="1">
                    <mxGeometry x="251" y="340" width="170" height="60" as="geometry"/>
                </mxCell>
                <mxCell id="6" value="11.1.1.2" style="rounded=0;whiteSpace=wrap;html=1;" parent="1" vertex="1">
                    <mxGeometry x="573" y="340" width="150" height="60" as="geometry"/>
                </mxCell>
                <mxCell id="15" value="L4 Header" style="rounded=0;whiteSpace=wrap;html=1;" parent="1" vertex="1">
                    <mxGeometry x="723" y="340" width="150" height="60" as="geometry"/>
                </mxCell>
                <mxCell id="16" value="" style="endArrow=classic;html=1;fontSize=26;entryX=1;entryY=0;entryDx=0;entryDy=0;exitX=1;exitY=1;exitDx=0;exitDy=0;" parent="1" source="2" target="17" edge="1">
                    <mxGeometry width="50" height="50" relative="1" as="geometry">
                        <mxPoint x="380.5" y="399.9999999999999" as="sourcePoint"/>
                        <mxPoint x="380" y="680" as="targetPoint"/>
                    </mxGeometry>
                </mxCell>
                <mxCell id="17" value="10.0.0.2" style="rounded=0;whiteSpace=wrap;html=1;" parent="1" vertex="1">
                    <mxGeometry x="423" y="570" width="150" height="60" as="geometry"/>
                </mxCell>
                <mxCell id="18" value="Source MAC" style="rounded=0;whiteSpace=wrap;html=1;" parent="1" vertex="1">
                    <mxGeometry x="80" y="570" width="170" height="60" as="geometry"/>
                </mxCell>
                <mxCell id="19" value="Destination MAC" style="rounded=0;whiteSpace=wrap;html=1;" parent="1" vertex="1">
                    <mxGeometry x="251" y="570" width="170" height="60" as="geometry"/>
                </mxCell>
                <mxCell id="20" value="11.1.1.2" style="rounded=0;whiteSpace=wrap;html=1;" parent="1" vertex="1">
                    <mxGeometry x="573" y="570" width="150" height="60" as="geometry"/>
                </mxCell>
                <mxCell id="22" value="ESP Header&lt;br&gt;(SPI 0x10203040)" style="rounded=0;whiteSpace=wrap;html=1;" parent="1" vertex="1">
                    <mxGeometry x="723" y="570" width="157" height="60" as="geometry"/>
                </mxCell>
                <mxCell id="23" value="Payload" style="rounded=0;whiteSpace=wrap;html=1;" parent="1" vertex="1">
                    <mxGeometry x="873" y="340" width="150" height="60" as="geometry"/>
                </mxCell>
                <mxCell id="27" value="&lt;span style=&quot;font-size: 15px&quot;&gt;IPSec Encapsulation&lt;br&gt;(Tunnel ID 1)&lt;br&gt;&lt;/span&gt;" style="text;html=1;align=center;verticalAlign=middle;resizable=0;points=[];autosize=1;strokeColor=none;fillColor=none;fontSize=26;" parent="1" vertex="1">
                    <mxGeometry x="380" y="470" width="150" height="70" as="geometry"/>
                </mxCell>
                <mxCell id="29" value="L4 Header&lt;br&gt;(Encrypted)" style="rounded=0;whiteSpace=wrap;html=1;" parent="1" vertex="1">
                    <mxGeometry x="880" y="570" width="150" height="60" as="geometry"/>
                </mxCell>
                <mxCell id="30" value="Payload&lt;br&gt;(Encrypted)" style="rounded=0;whiteSpace=wrap;html=1;" parent="1" vertex="1">
                    <mxGeometry x="1030" y="570" width="150" height="60" as="geometry"/>
                </mxCell>
                <mxCell id="34" value="&lt;span style=&quot;font-size: 15px&quot;&gt;GRE Encapsulation&lt;br&gt;(Tunnel ID 3)&lt;br&gt;&lt;/span&gt;" style="text;html=1;align=center;verticalAlign=middle;resizable=0;points=[];autosize=1;strokeColor=none;fillColor=none;fontSize=26;" parent="1" vertex="1">
                    <mxGeometry x="370" y="680" width="150" height="70" as="geometry"/>
                </mxCell>
                <mxCell id="35" value="" style="endArrow=classic;html=1;fontSize=26;exitX=1;exitY=1;exitDx=0;exitDy=0;entryX=0.62;entryY=0.013;entryDx=0;entryDy=0;entryPerimeter=0;" parent="1" source="17" edge="1" target="45">
                    <mxGeometry width="50" height="50" relative="1" as="geometry">
                        <mxPoint x="382" y="750" as="sourcePoint"/>
                        <mxPoint x="573" y="1020" as="targetPoint"/>
                    </mxGeometry>
                </mxCell>
                <mxCell id="36" value="10.0.0.2" style="rounded=0;whiteSpace=wrap;html=1;" parent="1" vertex="1">
                    <mxGeometry x="631" y="810" width="150" height="60" as="geometry"/>
                </mxCell>
                <mxCell id="37" value="Source MAC" style="rounded=0;whiteSpace=wrap;html=1;" parent="1" vertex="1">
                    <mxGeometry x="-160" y="810" width="170" height="60" as="geometry"/>
                </mxCell>
                <mxCell id="38" value="Destination MAC" style="rounded=0;whiteSpace=wrap;html=1;" parent="1" vertex="1">
                    <mxGeometry x="11" y="810" width="170" height="60" as="geometry"/>
                </mxCell>
                <mxCell id="39" value="11.1.1.2" style="rounded=0;whiteSpace=wrap;html=1;" parent="1" vertex="1">
                    <mxGeometry x="781" y="810" width="150" height="60" as="geometry"/>
                </mxCell>
                <mxCell id="40" value="ESP Header&lt;br&gt;(SPI 0x10203040)" style="rounded=0;whiteSpace=wrap;html=1;" parent="1" vertex="1">
                    <mxGeometry x="931" y="810" width="157" height="60" as="geometry"/>
                </mxCell>
                <mxCell id="41" value="L4 Header&lt;br&gt;(Encrypted)" style="rounded=0;whiteSpace=wrap;html=1;" parent="1" vertex="1">
                    <mxGeometry x="1088" y="810" width="142" height="60" as="geometry"/>
                </mxCell>
                <mxCell id="42" value="Payload&lt;br&gt;(Encrypted)" style="rounded=0;whiteSpace=wrap;html=1;" parent="1" vertex="1">
                    <mxGeometry x="1238" y="810" width="150" height="60" as="geometry"/>
                </mxCell>
                <mxCell id="43" value="8.8.8.8" style="rounded=0;whiteSpace=wrap;html=1;" parent="1" vertex="1">
                    <mxGeometry x="181" y="810" width="150" height="60" as="geometry"/>
                </mxCell>
                <mxCell id="44" value="9.9.9.9" style="rounded=0;whiteSpace=wrap;html=1;" parent="1" vertex="1">
                    <mxGeometry x="331" y="810" width="150" height="60" as="geometry"/>
                </mxCell>
                <mxCell id="45" value="GRE Header" style="rounded=0;whiteSpace=wrap;html=1;" parent="1" vertex="1">
                    <mxGeometry x="481" y="810" width="150" height="60" as="geometry"/>
                </mxCell>
            </root>
        </mxGraphModel>
    </diagram>
</mxfile>